<?xml version="1.0" encoding="UTF-8"?>
<svg id="Layer_1" data-name="Layer 1" xmlns="http://www.w3.org/2000/svg" viewBox="0 0 2947.62 601.27">
  <defs>
    <style>
      .cls-1 {
        fill: #fff;
      }

      .cls-2 {
        fill: #facc15;
      }
    </style>
  </defs>
  <path d="M138.6,7.85L0,147.35v443.25h94.73l136.8-141.7v-27.62h42.07l5.91-7.59s-5.91,92.81,43.03,130.78c0,0,87.75,104.62,230.34,26.16,0,0,32.91-16.87,80.16-72.56,0,0,7.59,74.25,66.66,91.97,0,0,83.53,37.97,144.28-30.37v32.06l83.53,1.69,19.41-26.16v26.16l90.28,1.69,120.66-124.03v123.19l86.06-.84,48.09-45.56s32.06,43.82,113.91,52.71c0,0,60.75,8.89,108.84-35.83v29.53h82.69l48.09-52.31s43.87,74.25,162,55.69c0,0,54.84,5.06,129.09-83.53v79.31l90.28,1.69,103.78-106.31v104.62h91.97l102.94-104.62,61.59,104.62,188.16.84,67.5-66.66s16.87,85.22,153.56,66.66l151.21-145.35v-71.12s-83.71,14.82-83.71-51.84v-46.41l83.71-77.32-164.85-150.62-75.8,72.7h-13.2l27.54-27.84-77.62-88.59h-123.54l-154.9,147.66-87.12-148.39-123.81,118.86-70.09-.85-48.04,44.73-225.59-15.59-70.56,61.99L1650.76,0l-121.66,120.07-86.32,45.46-54.58,49.88-193.78-74.34-22.22,16.12-80.04-32.07-23.74,23.63-88.93-23.63-120.32,122.35-87.23-122.35-48.61,48.1-247.75-10.81-61.07,58.06-84.37-21.94,112.1-111.36L138.6,7.85Z"/>
  <g>
    <path class="cls-2" d="M139.81,448.9V7.12h302.43v80.06h-210.51v112.08h180.86v80.05h-180.86v169.6h-91.92Z"/>
    <path class="cls-2" d="M594.63,456.02c-32.02,0-61.18-7.31-87.47-21.94-26.3-14.62-47.25-34.69-62.86-60.19-15.62-25.5-23.42-54.45-23.42-86.87s7.8-61.87,23.42-87.17c15.61-25.29,36.56-45.26,62.86-59.89,26.29-14.62,55.45-21.94,87.47-21.94s61.08,7.32,87.17,21.94c26.09,14.63,46.94,34.6,62.56,59.89,15.61,25.3,23.42,54.36,23.42,87.17s-7.81,61.37-23.42,86.87c-15.62,25.5-36.47,45.57-62.56,60.19-26.09,14.63-55.15,21.94-87.17,21.94ZM594.63,375.96c16.21,0,30.34-3.75,42.4-11.27,12.05-7.5,21.54-17.98,28.46-31.43,6.91-13.44,10.38-28.85,10.38-46.25s-3.47-32.71-10.38-45.96c-6.92-13.24-16.41-23.72-28.46-31.43-12.06-7.71-26.19-11.56-42.4-11.56s-30.45,3.85-42.7,11.56c-12.26,7.71-21.85,18.19-28.76,31.43-6.92,13.25-10.38,28.57-10.38,45.96s3.46,32.82,10.38,46.25c6.91,13.44,16.5,23.92,28.76,31.43,12.25,7.51,26.48,11.27,42.7,11.27Z"/>
    <path class="cls-2" d="M894.68,456.02c-26.09,0-48.33-5.63-66.71-16.9-18.38-11.27-32.32-26.98-41.81-47.14-9.49-20.16-14.23-43.68-14.23-70.57V125.12h88.95v189.17c0,12.26,2.46,23.03,7.41,32.32,4.94,9.29,11.95,16.51,21.05,21.64,9.09,5.14,19.37,7.71,30.84,7.71s22.24-2.57,31.13-7.71c8.9-5.13,15.81-12.35,20.75-21.64,4.94-9.28,7.41-20.06,7.41-32.32V125.12h88.95v323.78h-83.02v-64.04l4.74,14.23c-7.51,19.37-19.67,33.71-36.47,42.99-16.81,9.28-36.47,13.94-59,13.94Z"/>
    <path class="cls-2" d="M1092.15,448.9V125.12h83.02v64.04l-4.74-14.23c7.5-19.37,19.66-33.7,36.47-42.99,16.8-9.28,36.47-13.94,59-13.94,24.51,0,45.96,5.14,64.34,15.42,18.38,10.28,32.71,24.61,42.99,42.99,10.28,18.38,15.42,39.83,15.42,64.34v208.14h-88.95v-189.17c0-12.65-2.47-23.52-7.41-32.62-4.95-9.09-11.86-16.21-20.75-21.35-8.9-5.13-19.27-7.71-31.13-7.71s-21.75,2.58-30.84,7.71c-9.1,5.14-16.11,12.26-21.05,21.35-4.95,9.1-7.41,19.97-7.41,32.62v189.17h-88.95Z"/>
    <path class="cls-2" d="M1558.25,456.02c-31.63,0-59.89-7.5-84.8-22.53-24.91-15.02-44.58-35.38-59-61.08-14.44-25.69-21.64-54.16-21.64-85.39s7.31-60.19,21.94-85.69c14.62-25.5,34.39-45.75,59.3-60.78,24.91-15.02,52.78-22.53,83.61-22.53,23.72,0,44.77,4.45,63.15,13.34,18.38,8.9,32.91,21.45,43.59,37.66l-13.64,17.79V0h88.95v448.9h-83.02v-59.3l8.3,18.38c-11.07,15.82-26.09,27.78-45.07,35.88-18.98,8.1-39.54,12.16-61.67,12.16ZM1568.92,375.96c16.21,0,30.44-3.75,42.7-11.27,12.25-7.5,21.84-17.98,28.76-31.43,6.91-13.44,10.38-28.85,10.38-46.25s-3.47-32.81-10.38-46.25c-6.92-13.44-16.51-23.91-28.76-31.43-12.26-7.51-26.49-11.27-42.7-11.27s-30.74,3.85-43.59,11.56c-12.85,7.71-22.83,18.19-29.95,31.43-7.12,13.25-10.67,28.57-10.67,45.96s3.56,32.82,10.67,46.25c7.12,13.44,17.09,23.92,29.95,31.43,12.84,7.51,27.37,11.27,43.59,11.27Z"/>
    <path class="cls-2" d="M1919.38,456.02c-34.39,0-64.25-7.61-89.54-22.83-25.3-15.21-44.87-35.67-58.71-61.38-13.84-25.69-20.76-54.16-20.76-85.39s7.21-61.27,21.64-86.58c14.43-25.29,33.89-45.26,58.41-59.89,24.51-14.62,52.18-21.94,83.02-21.94,25.69,0,48.42,4.06,68.19,12.16,19.76,8.11,36.47,19.48,50.11,34.1,13.64,14.63,24.02,31.53,31.13,50.7,7.12,19.18,10.67,40.03,10.67,62.56,0,6.33-.3,12.55-.89,18.68-.59,6.13-1.69,11.37-3.26,15.71h-242.54v-65.23h192.13l-42.1,30.84c3.95-16.99,3.75-32.11-.59-45.36-4.35-13.24-11.96-23.72-22.83-31.43-10.88-7.71-24.22-11.56-40.03-11.56s-28.67,3.76-39.73,11.27c-11.07,7.51-19.37,18.59-24.91,33.21-5.54,14.63-7.71,32.42-6.52,53.37-1.58,18.19.59,34.2,6.52,48.03,5.93,13.84,15.02,24.61,27.28,32.32,12.25,7.71,27.07,11.56,44.47,11.56,15.81,0,29.35-3.16,40.62-9.49,11.27-6.32,20.06-15.02,26.39-26.09l71.16,33.8c-6.33,15.82-16.31,29.65-29.95,41.51-13.64,11.86-29.75,21.05-48.33,27.57-18.59,6.52-38.94,9.79-61.08,9.79Z"/>
    <path class="cls-2" d="M2084.23,448.9V125.12h83.02v77.68l-5.93-11.27c7.12-27.28,18.87-45.75,35.28-55.45,16.4-9.68,35.88-14.53,58.41-14.53h18.98v77.09h-27.87c-21.75,0-39.34,6.62-52.78,19.87-13.44,13.25-20.16,31.93-20.16,56.04v174.34h-88.95Z"/>
    <path class="cls-1" d="M2278.13,448.9V7.12h91.92v221.19l-25.5-8.9L2521.26,7.12h115.04l-174.93,211.11,5.34-65.23,173.16,295.91h-107.33l-107.93-186.79-54.56,65.82v120.97h-91.92Z"/>
    <path class="cls-1" d="M2637.49,96.07V7.12h88.95v88.95h-88.95ZM2637.49,448.9V125.12h88.95v323.78h-88.95Z"/>
    <path class="cls-1" d="M2906.11,452.46c-39.14,0-69.48-10.57-91.03-31.73-21.55-21.14-32.32-50.7-32.32-88.65v-129.87h-54.56v-77.09h2.96c16.6,0,29.35-4.15,38.25-12.45,8.89-8.3,13.34-20.75,13.34-37.36v-23.72h88.95v73.53h75.9v77.09h-75.9v123.94c0,11.07,1.97,20.26,5.93,27.57,3.95,7.32,10.08,12.75,18.38,16.31,8.3,3.56,18.58,5.34,30.84,5.34,2.76,0,5.93-.19,9.49-.59,3.56-.39,7.31-.79,11.27-1.19v75.31c-5.93.79-12.66,1.58-20.16,2.37-7.51.79-14.63,1.19-21.35,1.19Z"/>
  </g>
  <rect class="cls-1" x="2721.9" y="125.13" width="9.28" height="77.08"/>
</svg>